<svg xmlns="http://www.w3.org/2000/svg" xmlns:xlink="http://www.w3.org/1999/xlink" viewBox="0 0 16 16" version="1.1">
    <!-- Generator: sketchtool 59.1 (101010) - https://sketch.com -->
    <title>0CDBC1E2-8909-4243-BBA1-3A42F04A193C</title>
    <desc>Created with sketchtool.</desc>
    <defs>
        <path d="M11.6817816,0.233979811 C11.992648,0.543809405 11.9934885,1.04698294 11.6836589,1.35784935 C11.6827932,1.35871793 11.6819255,1.35958451 11.6810558,1.36044908 L4.30498045,8.69300228 C4.27593288,8.72187846 4.24522709,8.74807315 4.21317105,8.77158655 L4.28736448,8.70799553 C3.97468927,9.02017496 3.46869377,9.02155022 3.15432622,8.71107505 L0.235707688,5.82859375 C-0.0758211163,5.52092218 -0.078948021,5.0189611 0.228723551,4.70743229 L0.23264972,4.70348473 C0.545324933,4.3913053 1.05132043,4.38993004 1.36568798,4.70040521 L3.719,7.024 L10.5500854,0.233250699 C10.8632181,-0.0780344733 11.3690501,-0.0777085833 11.6817816,0.233979811 Z" id="path-1"/>
    </defs>
    <g id="Find-a-plan" stroke="none" stroke-width="1" fill="none" fill-rule="evenodd" transform="translate(2, 0)">
        <g id="Popup-Drugs" transform="translate(-36.000000, -98.000000)">
            <g id="tooltips/boxAbove">
                <g id="elements/icons/tick" transform="translate(36.000000, 101.000000)">
                    <mask id="mask-2" fill="white">
                        <use xlink:href="#path-1"/>
                    </mask>
                    <use id="Hamburger" fill="#232e75" xlink:href="#path-1"/>
                    <g id="palette/yellow-primary" mask="url(#mask-2)" fill="#232e75">
                        <g transform="translate(0.000000, -3.000000)" id="FFFBF4">
                            <path d="M0.999999993,0.000121421317 L11,0.00133563449 C11.5522373,0.00152411656 11.9998786,0.449219723 12,1.00145706 L12,11 C12,11.5522847 11.5522847,12 11,12 L1,12 C0.44771525,12 6.76353751e-17,11.5522847 0,11 L0,1 C-0.000121413946,0.44771525 0.447593836,1.01453063e-16 0.999878586,0 C0.99991906,-7.43491151e-21 0.999959534,2.45718931e-09 0.999999993,0.000121421317 Z" transform="translate(6.000000, 6.000000) scale(-1, 1) translate(-6.000000, -6.000000) "/>
                        </g>
                    </g>
                </g>
            </g>
        </g>
    </g>
</svg>